<mxfile host="app.diagrams.net" modified="2022-08-26T02:54:31.299Z" agent="5.0 (X11)" etag="D_CKip5ozYW6yGp03g_R" version="20.2.7" type="github">
  <diagram id="prtHgNgQTEPvFCAcTncT" name="Page-1">
    <mxGraphModel dx="927" dy="515" grid="1" gridSize="10" guides="1" tooltips="1" connect="1" arrows="1" fold="1" page="1" pageScale="1" pageWidth="827" pageHeight="1169" math="0" shadow="0">
      <root>
        <mxCell id="0" />
        <mxCell id="1" parent="0" />
        <mxCell id="dNxyNK7c78bLwvsdeMH5-11" value="Orgchart" style="swimlane;html=1;startSize=20;horizontal=1;containerType=tree;glass=0;fillColor=#dae8fc;strokeColor=#6c8ebf;verticalAlign=middle;spacing=-2;fontSize=15;" parent="1" vertex="1">
          <mxGeometry x="70" y="150" width="600" height="770" as="geometry" />
        </mxCell>
        <mxCell id="qc82mpbbsG2euQw0mBEm-1" value="收集信号数据" style="rounded=0;whiteSpace=wrap;html=1;verticalAlign=middle;spacing=-2;fontSize=15;" vertex="1" parent="dNxyNK7c78bLwvsdeMH5-11">
          <mxGeometry x="200" y="30" width="120" height="60" as="geometry" />
        </mxCell>
        <mxCell id="qc82mpbbsG2euQw0mBEm-2" value="" style="edgeStyle=orthogonalEdgeStyle;rounded=0;orthogonalLoop=1;jettySize=auto;html=1;verticalAlign=middle;spacing=-2;fontSize=15;" edge="1" source="qc82mpbbsG2euQw0mBEm-1" target="qc82mpbbsG2euQw0mBEm-5" parent="dNxyNK7c78bLwvsdeMH5-11">
          <mxGeometry relative="1" as="geometry" />
        </mxCell>
        <mxCell id="qc82mpbbsG2euQw0mBEm-3" value="预测分析" style="rounded=0;whiteSpace=wrap;html=1;verticalAlign=middle;spacing=-2;fontSize=15;" vertex="1" parent="dNxyNK7c78bLwvsdeMH5-11">
          <mxGeometry x="200" y="230" width="120" height="60" as="geometry" />
        </mxCell>
        <mxCell id="qc82mpbbsG2euQw0mBEm-4" value="" style="edgeStyle=orthogonalEdgeStyle;rounded=0;orthogonalLoop=1;jettySize=auto;html=1;verticalAlign=middle;spacing=-2;fontSize=15;" edge="1" target="qc82mpbbsG2euQw0mBEm-3" source="qc82mpbbsG2euQw0mBEm-5" parent="dNxyNK7c78bLwvsdeMH5-11">
          <mxGeometry relative="1" as="geometry">
            <mxPoint x="290" y="190" as="sourcePoint" />
          </mxGeometry>
        </mxCell>
        <mxCell id="qc82mpbbsG2euQw0mBEm-5" value="数据处理" style="rounded=0;whiteSpace=wrap;html=1;verticalAlign=middle;spacing=-2;fontSize=15;" vertex="1" parent="dNxyNK7c78bLwvsdeMH5-11">
          <mxGeometry x="200" y="130" width="120" height="60" as="geometry" />
        </mxCell>
        <mxCell id="qc82mpbbsG2euQw0mBEm-13" value="" style="rounded=0;whiteSpace=wrap;html=1;verticalAlign=middle;spacing=-2;fontSize=15;" vertex="1" parent="dNxyNK7c78bLwvsdeMH5-11">
          <mxGeometry x="60" y="340" width="70" as="geometry" />
        </mxCell>
        <mxCell id="qc82mpbbsG2euQw0mBEm-14" value="" style="edgeStyle=orthogonalEdgeStyle;rounded=0;orthogonalLoop=1;jettySize=auto;html=1;startArrow=none;verticalAlign=middle;spacing=-2;fontSize=15;" edge="1" target="qc82mpbbsG2euQw0mBEm-15" source="qc82mpbbsG2euQw0mBEm-24" parent="dNxyNK7c78bLwvsdeMH5-11">
          <mxGeometry relative="1" as="geometry">
            <mxPoint x="280" y="410" as="sourcePoint" />
          </mxGeometry>
        </mxCell>
        <mxCell id="qc82mpbbsG2euQw0mBEm-15" value="定位故障" style="rounded=0;whiteSpace=wrap;html=1;verticalAlign=middle;spacing=-2;fontSize=15;" vertex="1" parent="dNxyNK7c78bLwvsdeMH5-11">
          <mxGeometry x="200" y="470" width="120" height="60" as="geometry" />
        </mxCell>
        <mxCell id="qc82mpbbsG2euQw0mBEm-16" value="" style="edgeStyle=orthogonalEdgeStyle;rounded=0;orthogonalLoop=1;jettySize=auto;html=1;verticalAlign=middle;spacing=-2;fontSize=15;" edge="1" target="qc82mpbbsG2euQw0mBEm-17" source="qc82mpbbsG2euQw0mBEm-15" parent="dNxyNK7c78bLwvsdeMH5-11">
          <mxGeometry relative="1" as="geometry">
            <mxPoint x="280" y="510" as="sourcePoint" />
          </mxGeometry>
        </mxCell>
        <mxCell id="qc82mpbbsG2euQw0mBEm-17" value="显示维护建议" style="rounded=0;whiteSpace=wrap;html=1;verticalAlign=middle;spacing=-2;fontSize=15;" vertex="1" parent="dNxyNK7c78bLwvsdeMH5-11">
          <mxGeometry x="200" y="570" width="120" height="60" as="geometry" />
        </mxCell>
        <mxCell id="qc82mpbbsG2euQw0mBEm-18" value="" style="edgeStyle=orthogonalEdgeStyle;rounded=0;orthogonalLoop=1;jettySize=auto;html=1;verticalAlign=middle;spacing=-2;fontSize=15;" edge="1" target="qc82mpbbsG2euQw0mBEm-19" source="qc82mpbbsG2euQw0mBEm-17" parent="dNxyNK7c78bLwvsdeMH5-11">
          <mxGeometry relative="1" as="geometry">
            <mxPoint x="280" y="610" as="sourcePoint" />
          </mxGeometry>
        </mxCell>
        <mxCell id="qc82mpbbsG2euQw0mBEm-19" value="结束" style="rounded=0;whiteSpace=wrap;html=1;verticalAlign=middle;spacing=-2;fontSize=15;" vertex="1" parent="dNxyNK7c78bLwvsdeMH5-11">
          <mxGeometry x="200" y="670" width="120" height="60" as="geometry" />
        </mxCell>
        <mxCell id="qc82mpbbsG2euQw0mBEm-24" value="决策" style="rhombus;whiteSpace=wrap;html=1;verticalAlign=middle;spacing=-2;fontSize=15;" vertex="1" parent="dNxyNK7c78bLwvsdeMH5-11">
          <mxGeometry x="220" y="340" width="80" height="80" as="geometry" />
        </mxCell>
        <mxCell id="qc82mpbbsG2euQw0mBEm-25" value="" style="edgeStyle=orthogonalEdgeStyle;rounded=0;orthogonalLoop=1;jettySize=auto;html=1;endArrow=none;exitX=0;exitY=0.25;exitDx=0;exitDy=0;verticalAlign=middle;spacing=-2;fontSize=15;" edge="1" parent="dNxyNK7c78bLwvsdeMH5-11" source="qc82mpbbsG2euQw0mBEm-19" target="qc82mpbbsG2euQw0mBEm-24">
          <mxGeometry relative="1" as="geometry">
            <mxPoint x="80" y="620" as="sourcePoint" />
            <mxPoint x="280" y="550" as="targetPoint" />
            <Array as="points">
              <mxPoint x="180" y="685" />
              <mxPoint x="180" y="380" />
            </Array>
          </mxGeometry>
        </mxCell>
        <mxCell id="qc82mpbbsG2euQw0mBEm-29" value="" style="edgeStyle=orthogonalEdgeStyle;rounded=0;orthogonalLoop=1;jettySize=auto;html=1;exitX=0.5;exitY=1;exitDx=0;exitDy=0;verticalAlign=middle;spacing=-2;fontSize=15;" edge="1" target="qc82mpbbsG2euQw0mBEm-24" source="qc82mpbbsG2euQw0mBEm-3" parent="dNxyNK7c78bLwvsdeMH5-11">
          <mxGeometry relative="1" as="geometry">
            <mxPoint x="270" y="410" as="sourcePoint" />
          </mxGeometry>
        </mxCell>
        <mxCell id="qc82mpbbsG2euQw0mBEm-33" value="是" style="text;html=1;strokeColor=none;fillColor=none;align=center;verticalAlign=middle;whiteSpace=wrap;rounded=0;fontSize=15;" vertex="1" parent="dNxyNK7c78bLwvsdeMH5-11">
          <mxGeometry x="270" y="420" width="60" height="30" as="geometry" />
        </mxCell>
        <mxCell id="qc82mpbbsG2euQw0mBEm-34" value="否" style="text;html=1;strokeColor=none;fillColor=none;align=center;verticalAlign=middle;whiteSpace=wrap;rounded=0;fontSize=15;" vertex="1" parent="dNxyNK7c78bLwvsdeMH5-11">
          <mxGeometry x="130" y="370" width="60" height="40" as="geometry" />
        </mxCell>
      </root>
    </mxGraphModel>
  </diagram>
</mxfile>
